<?xml version="1.0" encoding="UTF-8"?>
<svg version="1.1" xmlns="http://www.w3.org/2000/svg" width="1024" height="1024">
<path d="M0 0 C337.92 0 675.84 0 1024 0 C1024 337.92 1024 675.84 1024 1024 C686.08 1024 348.16 1024 0 1024 C0 686.08 0 348.16 0 0 Z " fill="#000000" transform="translate(0,0)"/>
<path d="M0 0 C55.51809211 0 55.51809211 0 79.1875 12.8125 C86.07165843 16.48711334 93.00958954 20.03191773 100 23.5 C106.67187388 26.81262079 113.30111423 30.18454133 119.875 33.6875 C128.50603799 38.28168253 137.24721454 42.64418444 146 47 C155.33312139 51.64627858 164.64325966 56.3176622 173.84960938 61.21191406 C180.87199848 64.94506297 187.9336106 68.60106311 195 72.25 C197.48049143 73.53120609 199.96094728 74.81248106 202.44140625 76.09375 C203.06159637 76.41405685 203.6817865 76.73436371 204.32077026 77.06437683 C208.76699768 79.3612767 213.21045041 81.66348078 217.65234375 83.96875 C218.26912994 84.28882019 218.88591614 84.60889038 219.52139282 84.93865967 C222.46312756 86.46536979 225.40457135 87.9926362 228.34570312 89.52050781 C229.39564453 90.06545898 230.44558594 90.61041016 231.52734375 91.171875 C232.90007446 91.8848877 232.90007446 91.8848877 234.30053711 92.61230469 C235.19135986 93.07024414 236.08218262 93.52818359 237 94 C238.04744385 94.55333008 239.0948877 95.10666016 240.17407227 95.67675781 C243.84352453 97.39498082 245.11826458 97.17184466 249 96 C251.63713311 94.86855675 254.23331292 93.66912673 256.8269043 92.44116211 C259.84093429 91.07224474 262.86589859 89.86879472 265.96484375 88.70703125 C272.56067858 86.19375453 279.07016845 83.50235162 285.57080078 80.75332642 C288.95170622 79.32359747 292.33526498 77.90017372 295.71875 76.4765625 C296.40888184 76.18604507 297.09901367 75.89552765 297.81005859 75.59620667 C302.41828103 73.658539 307.03390625 71.73965861 311.65625 69.8359375 C312.26978836 69.58323593 312.88332672 69.33053436 313.51545715 69.07017517 C315.34358189 68.31748024 317.1717906 67.56498927 319 66.8125 C328.78191772 62.78441843 338.49532941 58.6241369 348.17822266 54.36425781 C353.36017924 52.09973452 358.55534218 49.97971942 363.875 48.0625 C372.09983345 45.07243034 380.05899066 41.52793042 388.04638672 37.95727539 C393.43126287 35.55253304 398.82811398 33.23559557 404.31445312 31.07275391 C409.35469922 29.05940469 414.34839475 26.93279089 419.35025024 24.82629395 C432.24088221 19.39811075 445.15314455 14.02400959 458.08520508 8.6953125 C459.22884521 8.22351563 460.37248535 7.75171875 461.55078125 7.265625 C462.55794189 6.85086914 463.56510254 6.43611328 464.6027832 6.00878906 C466.08807172 5.38375473 467.55868119 4.72065941 469 4 C471.54185361 3.90129809 474.05568689 3.86014123 476.59765625 3.8671875 C477.34712021 3.86623077 478.09658417 3.86527405 478.86875916 3.86428833 C480.45327844 3.86360759 482.03780052 3.86545449 483.62231445 3.86962891 C486.05621555 3.87498617 488.48993273 3.86967653 490.92382812 3.86328125 C492.46093791 3.8639419 493.99804758 3.8652228 495.53515625 3.8671875 C496.26742935 3.86516327 496.99970245 3.86313904 497.75416565 3.86105347 C502.88504332 3.88504332 502.88504332 3.88504332 504 5 C504.11720762 6.43859131 504.16724049 7.88274057 504.18945312 9.32592773 C504.20617065 10.2487706 504.22288818 11.17161346 504.2401123 12.12242126 C504.26047546 13.63770164 504.26047546 13.63770164 504.28125 15.18359375 C504.29965942 16.22709488 504.31806885 17.27059601 504.33703613 18.34571838 C504.39597918 21.70958611 504.44854593 25.07350996 504.5 28.4375 C504.7174159 45.51113478 504.7174159 45.51113478 505.46875 62.56640625 C506.29476356 75.77172923 506.56412455 89.00510796 506.93588257 102.22947311 C507.00078656 104.52785374 507.06676796 106.82620116 507.13305664 109.12454224 C507.62334919 126.14739585 508.08025977 143.1694978 508.37695312 160.19702148 C508.41781534 162.44385045 508.45886088 164.69067609 508.5 166.9375 C508.51424074 167.75835272 508.52848148 168.57920544 508.54315376 169.42493248 C508.79311566 183.63247332 509.22817306 197.82280517 509.80310249 212.0206337 C510.68719987 234.08532133 511.32496014 256.15037424 511.81640625 278.2265625 C511.83209829 278.92932572 511.84779033 279.63208893 511.86395788 280.356148 C512.07137723 289.66022751 512.27174896 298.96445318 512.46972656 308.26873779 C512.7024013 319.20295255 512.93835704 330.1370941 513.18015331 341.07111108 C513.28368289 345.76272266 513.38268008 350.45441611 513.48060608 355.14614868 C513.74370033 367.37170244 514.09093406 379.5780376 514.77438354 391.78788757 C515.13298826 398.21325334 515.32382099 404.64440475 515.50268555 411.0769043 C515.56128285 413.14455215 515.6271607 415.21188041 515.69335938 417.27929688 C516.14611995 433.19778379 516 449.05350914 516 465 C486.63 465 457.26 465 427 465 C426.87625 458.544375 426.7525 452.08875 426.625 445.4375 C426.26548328 428.13941034 425.65848752 410.86633079 424.86630249 393.58309937 C424.10293396 376.81821077 423.63212208 360.05887761 423.34179688 343.27929688 C423.3255275 342.39602722 423.30925812 341.51275757 423.29249573 340.60272217 C423.26351525 339.00646116 423.23714421 337.41014812 423.21470642 335.81378174 C423.1134423 330.21949306 422.8248542 324.64346626 422.51367188 319.05786133 C422.02749601 310.21767301 421.75994546 301.38448992 421.58500862 292.53321648 C421.53301871 289.91989823 421.4766479 287.30670255 421.41929626 284.6934967 C421.25714003 277.27600972 421.10137958 269.85839729 420.95043945 262.44067383 C420.48210382 239.55752636 419.76288298 216.71113511 418.58540344 193.85271835 C417.30268187 168.91051167 416.80330662 143.9740076 417 119 C416.28457031 119.30292969 415.56914063 119.60585938 414.83203125 119.91796875 C408.40587472 122.619781 401.94524351 125.19465739 395.43212891 127.67871094 C389.15761008 130.0942534 382.92539305 132.61674812 376.6875 135.125 C362.25923283 140.92618421 362.25923283 140.92618421 357.84765625 142.5546875 C352.42486489 144.55915641 347.09708907 146.80361132 341.75 149 C330.99603154 153.40028678 320.20537826 157.69504961 309.38427734 161.92797852 C298.46689554 166.200364 287.58074843 170.54888904 276.70117188 174.91650391 C273.20317166 176.31962438 269.70306641 177.71745481 266.20263672 179.11450195 C264.73909236 179.70287209 263.27967934 180.30162922 261.82470703 180.91088867 C256.68351378 182.99023454 252.65375832 183.88458611 247.30541992 182.10180664 C246.39381104 181.68793701 245.48220215 181.27406738 244.54296875 180.84765625 C240.00001932 178.8563897 235.44461656 176.99070824 230.80078125 175.24609375 C228.95709961 174.55290039 228.95709961 174.55290039 227.07617188 173.84570312 C225.1877157 173.13860658 223.29892019 172.43242739 221.40991211 171.72680664 C208.41103365 166.86498845 208.41103365 166.86498845 202.24682617 163.97680664 C198.88325238 162.51449449 195.43914711 161.27085585 192 160 C190.57894733 159.47022146 189.15805124 158.94002277 187.73730469 158.40942383 C187.0009227 158.13487366 186.26454071 157.86032349 185.50584412 157.57745361 C150.99654855 144.70767638 150.99654855 144.70767638 138.58178711 139.65454102 C131.84422301 136.91369601 125.04926656 134.3327163 118.2355957 131.78735352 C113.41813097 129.97454454 108.71248207 128.0069115 104.02172852 125.88867188 C101.41221211 124.7416317 98.75994709 123.79466653 96.0625 122.875 C88.7819282 120.31999186 81.5778392 117.57852475 74.375 114.8125 C73.22394775 114.37212402 72.07289551 113.93174805 70.88696289 113.47802734 C69.79762451 113.05859863 68.70828613 112.63916992 67.5859375 112.20703125 C66.6067334 111.8303833 65.6275293 111.45373535 64.61865234 111.06567383 C62.36660489 110.14919172 60.17470131 109.08735065 58 108 C57.67 224.16 57.34 340.32 57 460 C38.19 460 19.38 460 0 460 C0 308.2 0 156.4 0 0 Z " fill="#FCFCFC" transform="translate(242,232)"/>
<path d="M0 0 C23.43 0 46.86 0 71 0 C71 25.08 71 50.16 71 76 C90.43712484 64.07427951 90.43712484 64.07427951 109.62890625 51.82421875 C120.05506966 45.05123103 130.66719042 38.56093426 141.22412109 31.99462891 C143.36593728 30.66219549 145.50729851 29.32903046 147.64819336 27.99511719 C149.64144727 26.75319684 151.63567062 25.51283034 153.63110352 24.27441406 C154.55205811 23.70045898 155.4730127 23.12650391 156.421875 22.53515625 C157.82614746 21.68751709 157.82614746 21.68751709 159.25878906 20.82275391 C162.0467169 19.07665697 162.0467169 19.07665697 164.35839844 16.79833984 C175.01689405 7.55947904 189.5125153 10.15034304 202.75 10.5 C205.39317528 10.54017575 208.03640924 10.57666926 210.6796875 10.609375 C217.12108282 10.6970439 223.56026577 10.83049791 230 11 C232.5192074 38.57078714 232.5192074 38.57078714 228.67138672 45.3359375 C225.12858837 48.79054602 220.76287142 50.45855877 216.17089844 52.13085938 C212.7904339 53.48426173 210.00973496 55.51732103 207.0625 57.625 C200.47986734 62.08955596 193.77181715 66.35431487 187.0625 70.625 C175.54030644 77.96683758 164.1539846 85.49900712 152.81176758 93.11523438 C149.78245602 95.14582266 146.74701808 97.16704863 143.7109375 99.1875 C140.56359118 101.28352418 137.42159708 103.38453967 134.30859375 105.53125 C133.36113281 106.1809375 132.41367187 106.830625 131.4375 107.5 C130.46683594 108.1703125 129.49617187 108.840625 128.49609375 109.53125 C126 111 126 111 123 111 C126.48819587 114.80204383 130.47009482 117.58143337 134.6875 120.5 C136.22272991 121.57281126 137.75788407 122.64573094 139.29296875 123.71875 C140.07591309 124.26402344 140.85885742 124.80929687 141.66552734 125.37109375 C145.28791376 127.89865725 148.89355155 130.44977375 152.5 133 C153.91266086 133.99753684 155.32542164 134.99493218 156.73828125 135.9921875 C157.43904785 136.48686523 158.13981445 136.98154297 158.86181641 137.49121094 C161.02588387 139.01826471 163.19060117 140.5443933 165.35546875 142.0703125 C172.48550858 147.09724706 179.60457293 152.13836924 186.69873047 157.21582031 C192.65134897 161.47276248 198.6314273 165.69053166 204.61328125 169.90625 C207.59286134 172.00618271 210.56912172 174.11070653 213.54296875 176.21875 C214.28957764 176.74742676 215.03618652 177.27610352 215.80541992 177.82080078 C217.21380967 178.81822087 218.62157975 179.81651687 220.02856445 180.81591797 C220.67913818 181.27627441 221.32971191 181.73663086 222 182.2109375 C222.6401001 182.67967285 223.2802002 183.1484082 223.93969727 183.63134766 C226.00688694 185.07772616 226.00688694 185.07772616 228.48022461 186.16162109 C231.21549486 187.5490108 233.00558851 188.65633163 235 191 C236.10859967 195.9738614 235.85197152 200.82350963 235.5625 205.875 C235.51730899 207.24466027 235.47625232 208.61446358 235.43945312 209.984375 C235.33353857 213.32656772 235.18575728 216.66144958 235 220 C228.8846325 220.27534558 222.77299266 220.47306767 216.65283203 220.60424805 C214.57894953 220.65900985 212.50548024 220.73365547 210.43310547 220.82983398 C195.94095739 221.48474739 186.87114913 220.01455486 175.74113464 210.43341064 C172.77301777 207.98987169 169.54003091 205.95531894 166.3125 203.875 C161.67028474 200.80260786 157.0691916 197.68002346 152.5 194.5 C147.99203446 191.36307021 143.45150961 188.28526709 138.875 185.25 C127.84314311 177.92496134 116.91948222 170.44102732 106.0625 162.859375 C105.05445313 162.15570801 104.04640625 161.45204102 103.0078125 160.72705078 C101.06354666 159.36827409 99.12073473 158.00741357 97.1796875 156.64404297 C91.7136029 152.82187163 86.17990617 149.16394566 80.5078125 145.65380859 C77.89245961 143.92908113 75.44634565 141.95707652 73 140 C72.67 166.4 72.34 192.8 72 220 C48.24 220 24.48 220 0 220 C0 147.4 0 74.8 0 0 Z " fill="#FCFCFD" transform="translate(320,412)"/>
<path d="M0 0 C44.22 0 88.44 0 134 0 C134.63322399 9.49835991 135.20366275 18.93947245 135.5 28.4453125 C135.54028824 29.6792424 135.58057648 30.9131723 135.62208557 32.18449402 C135.72890295 35.48431273 135.83324187 38.78419618 135.93608475 42.08414078 C136.0005276 44.14184664 136.06611588 46.19951303 136.13204956 48.25717163 C136.76554847 68.05246069 137.30651713 87.84828755 137.65820312 107.65087891 C137.81472141 116.08106172 138.09273638 124.47989321 138.62585449 132.89506531 C139.07346801 139.96761908 139.33862995 147.04189827 139.5625 154.125 C139.60568359 155.31480469 139.64886719 156.50460937 139.69335938 157.73046875 C140.00698908 167.51770678 140.02237716 177.29856417 140.01147461 187.08935547 C140.01055176 188.53987116 140.00971442 189.99038692 140.00896454 191.44090271 C140.00696145 194.96060301 140.00380353 198.48030113 140 202 C85.1608418 202.07380848 30.3261144 201.90486567 -24.51190639 201.55461788 C-34.31754065 201.49209611 -44.12319278 201.43260427 -53.9288466 201.37324238 C-73.95258476 201.25196025 -93.97629643 201.12687325 -114 201 C-114 188.46 -114 175.92 -114 163 C-56.91 163 0.18 163 59 163 C58.01 145.51 57.02 128.02 56 110 C54.875 83.5625 54.875 83.5625 54.4296875 72.00390625 C54.1577642 65.14135373 53.7897055 58.31842539 53.18798828 51.47631836 C52.90940465 46.32469197 53 41.15915335 53 36 C35.51 36 18.02 36 0 36 C0 24.12 0 12.24 0 0 Z " fill="#FBFBFB" transform="translate(508,489)"/>
<path d="M0 0 C8.28496604 -0.02329122 16.56991813 -0.0409999 24.85490894 -0.05181217 C28.7030078 -0.05700459 32.55108406 -0.06403513 36.39916992 -0.07543945 C40.12095546 -0.08639896 43.84271943 -0.09230418 47.56451988 -0.09487724 C48.97609483 -0.09670817 50.38766876 -0.10028283 51.79923439 -0.10573006 C82.04307299 -0.21767394 82.04307299 -0.21767394 93.5390625 10.31640625 C96.64760704 13.89871292 96.27360191 18.07076504 96.21484375 22.5625 C95.81797996 27.06510007 93.82715612 29.19519945 90.6875 32.25 C87.71321177 34.18674583 85.50493408 34.67395962 82 35 C82 35.66 82 36.32 82 37 C82.99 37.0825 83.98 37.165 85 37.25 C90.74860494 38.08955285 95.43414602 40.35384581 99.4375 44.5625 C102.5788739 49.46304328 102.60159408 54.34678501 102 60 C99.37709863 65.93003788 94.62586472 69.1220526 89 72 C78.94711885 75.39697939 68.99936769 75.39947184 58.54296875 75.29296875 C56.90245455 75.28735846 55.26193525 75.28309516 53.62141418 75.28010559 C49.3487202 75.26876941 45.07634275 75.23940211 40.80377197 75.20599365 C36.42586547 75.17504753 32.04790674 75.16154835 27.66992188 75.14648438 C19.11313762 75.11451899 10.55660842 75.06346259 2 75 C1.97494385 73.73406006 1.9498877 72.46812012 1.92407227 71.16381836 C1.82957874 66.44676376 1.72946198 61.72984207 1.62768555 57.01293945 C1.58449482 54.97521077 1.54280922 52.93744959 1.50268555 50.8996582 C1.44459689 47.96295396 1.38101552 45.02641091 1.31640625 42.08984375 C1.29969376 41.18540024 1.28298126 40.28095673 1.26576233 39.34910583 C1.18178423 35.72659888 1.04091395 32.2634719 0.48413086 28.67797852 C-0.24429101 23.14410286 -0.10369765 17.63685913 -0.0625 12.0625 C-0.05798828 10.90169922 -0.05347656 9.74089844 -0.04882812 8.54492188 C-0.03710647 5.69656066 -0.0206976 2.84830778 0 0 Z " fill="#F9F9F9" transform="translate(521,142)"/>
<path d="M0 0 C12.21 0 24.42 0 37 0 C41.91804656 9.83609313 46.75629437 19.62881622 51.3125 29.625 C52.32856021 31.84675082 53.34545885 34.06811843 54.36328125 36.2890625 C54.79938721 37.24506348 55.23549316 38.20106445 55.68481445 39.18603516 C56.62824019 41.20458445 57.6286705 43.19686178 58.66479492 45.16943359 C60 48 60 48 60 51 C60.66 51 61.32 51 62 51 C62.17873657 49.67597168 62.17873657 49.67597168 62.36108398 48.32519531 C62.97297981 45.14062477 63.84746649 42.71754479 65.22265625 39.796875 C65.90146851 38.33834106 65.90146851 38.33834106 66.59399414 36.8503418 C67.32090454 35.31567261 67.32090454 35.31567261 68.0625 33.75 C69.06346396 31.60591851 70.06345451 29.46138233 71.0625 27.31640625 C71.55878906 26.25437988 72.05507813 25.19235352 72.56640625 24.09814453 C74.96520495 18.91409215 77.25902571 13.68421774 79.53735352 8.44628906 C80.85657258 5.44090639 82.17374126 2.73938811 84 0 C86.83727325 -0.26667539 89.45383045 -0.34791234 92.2890625 -0.29296875 C93.10748627 -0.28872391 93.92591003 -0.28447906 94.76913452 -0.28010559 C97.38808836 -0.26328679 100.00627802 -0.22562974 102.625 -0.1875 C104.3984264 -0.17245726 106.17186484 -0.15876814 107.9453125 -0.14648438 C112.2971703 -0.11337292 116.64845551 -0.06156952 121 0 C122.17468966 25.34955287 123.28842747 50.61838299 123 76 C114.75 76 106.5 76 98 76 C97.67 58.18 97.34 40.36 97 22 C91.38892115 34.20317053 91.38892115 34.20317053 85.78295898 46.40869141 C81.35602523 56.03069762 76.79856886 65.55744706 72 75 C64.74 75 57.48 75 50 75 C46.5 68 46.5 68 45.31225586 65.62011719 C43.55499678 62.09979539 41.79130593 58.58325062 40.00390625 55.078125 C34.64004097 44.50148924 29.88443524 33.85430053 25 23 C25 40.16 25 57.32 25 75 C17.41 75 9.82 75 2 75 C1.21317341 63.43563271 0.7208846 51.89916796 0.4375 40.3125 C0.40573166 39.07364044 0.40573166 39.07364044 0.37332153 37.80975342 C0.05111574 25.20240356 -0.09701669 12.61216924 0 0 Z " fill="#F9F9F9" transform="translate(383,142)"/>
<path d="M0 0 C10.8075 -0.04125 21.615 -0.0825 32.75 -0.125 C36.13862305 -0.14320801 39.52724609 -0.16141602 43.01855469 -0.18017578 C45.73632652 -0.18602283 48.45410012 -0.19111789 51.171875 -0.1953125 C51.86114075 -0.20053925 52.55040649 -0.20576599 53.26055908 -0.21115112 C67.20277488 -0.31141565 82.15718853 -0.10169966 93.05078125 9.87890625 C98.01901348 15.55857985 98.41300969 19.29869128 98.33984375 26.6640625 C97.7627144 32.32921724 95.47356047 35.75653818 91.3203125 39.5234375 C85.94110323 43.65945174 80.82357844 45.32493231 74 45 C77.68074705 48.72854896 81.45666753 52.32831608 85.3125 55.875 C85.88427979 56.4016626 86.45605957 56.9283252 87.04516602 57.47094727 C92.40977205 62.39904912 97.81829334 67.25131554 103.5 71.8125 C104.325 72.534375 105.15 73.25625 106 74 C106 74.66 106 75.32 106 76 C81.45319188 80.13138925 81.45319188 80.13138925 72.17382812 73.57861328 C64.98854261 67.79155259 58.94296373 60.67365017 53.15942383 53.52197266 C50.88508878 50.86579617 49.27342018 49.17899976 45.73168945 48.68115234 C44.86761475 48.64973145 44.00354004 48.61831055 43.11328125 48.5859375 C42.26805908 48.55032715 41.42283691 48.5147168 40.55200195 48.47802734 C39.48296631 48.44402832 38.41393066 48.4100293 37.3125 48.375 C33.909375 48.25125 30.50625 48.1275 27 48 C27 57.24 27 66.48 27 76 C18.09 76 9.18 76 0 76 C0 50.92 0 25.84 0 0 Z " fill="#F7F7F7" transform="translate(752,142)"/>
<path d="M0 0 C9.86203687 -1.49294299 20.29015248 -2.85931741 30 0 C36.78660005 5.20159583 40.09617461 13.34428723 43.56054688 20.95361328 C45.49101288 25.03915514 47.88185251 28.66206041 50.4375 32.375 C54.85955424 39.11618353 59.12114905 45.95823229 63.35842896 52.81646729 C64.41003131 54.51805322 65.46461976 56.21779256 66.51928711 57.91748047 C69.95872356 63.50502487 73.18942602 69.06976078 76 75 C71.62614201 75.26210888 67.25430191 75.42144886 62.875 75.5625 C61.6375 75.63791016 60.4 75.71332031 59.125 75.79101562 C50.11303711 76.00904699 50.11303711 76.00904699 46.85986328 73.05981445 C45.326193 70.76256523 44.13342755 68.5145178 43 66 C42.38125 65.030625 41.7625 64.06125 41.125 63.0625 C40 61 40 61 40 59 C24.16 59 8.32 59 -8 59 C-8.66 60.98 -9.32 62.96 -10 65 C-11.45769942 68.9320901 -12.95577275 72.06434601 -16 75 C-20.67236977 76.24102736 -25.08256698 75.94948765 -29.875 75.625 C-31.13570312 75.57988281 -32.39640625 75.53476563 -33.6953125 75.48828125 C-36.80173693 75.37061366 -39.89842434 75.20651754 -43 75 C-38.51748422 65.59873045 -33.51442119 56.75144611 -28.0234375 47.90625 C-24.76644014 42.6523395 -21.6303943 37.33001802 -18.5 32 C-13.87146556 24.12348026 -9.16734408 16.30010232 -4.33789062 8.54492188 C-3.91185547 7.85591797 -3.48582031 7.16691406 -3.046875 6.45703125 C-2.67401367 5.85866455 -2.30115234 5.26029785 -1.91699219 4.64379883 C-0.84244177 2.83734098 -0.84244177 2.83734098 0 0 Z " fill="#FAFAFA" transform="translate(669,142)"/>
<path d="M0 0 C8.58 0 17.16 0 26 0 C26.66 9.57 27.32 19.14 28 29 C31.63 26.36 35.26 23.72 39 21 C42.95457074 18.28974175 46.91952225 15.59897261 50.90429688 12.93359375 C51.67966797 12.40894531 52.45503906 11.88429687 53.25390625 11.34375 C54.04120117 10.81716797 54.82849609 10.29058594 55.63964844 9.74804688 C58.06528655 8.03780469 58.06528655 8.03780469 60.19628906 5.83007812 C66.14730372 0.1047304 70.72219504 -0.8245695 78.67558289 -0.76403809 C80.99375769 -0.70235565 83.30829741 -0.60229972 85.625 -0.5 C87.2173577 -0.45979386 88.80981383 -0.42330569 90.40234375 -0.390625 C94.27069694 -0.30324408 98.13424069 -0.1656663 102 0 C98.970106 3.16358253 95.49242084 5.49925763 91.875 7.9375 C90.43946855 8.91443125 89.0045959 9.89233109 87.5703125 10.87109375 C86.82426758 11.3801123 86.07822266 11.88913086 85.30957031 12.41357422 C81.43322354 15.0762065 77.59046181 17.78596793 73.75 20.5 C73.03569824 21.00394287 72.32139648 21.50788574 71.58544922 22.02709961 C68.89982034 23.92633776 66.23292752 25.81797717 63.640625 27.84375 C62 29 62 29 60 29 C68.14925474 38.86488732 77.38014473 48.09790503 87.14453125 56.36328125 C90.15799583 59.02147422 92.9279996 61.91904655 95.74609375 64.78125 C98.56973054 67.56084392 101.53673797 70.1362004 104.56640625 72.6875 C105.03949219 73.120625 105.51257813 73.55375 106 74 C106 74.33 106 74.66 106 75 C95.4900764 77.28285726 82.37292633 79.53249664 72.69659424 73.58398438 C61.35811136 65.10226007 52.0177081 53.83169251 43 43 C35.33308969 45.93101827 35.33308969 45.93101827 29 51 C27.7614233 55.15030544 27.83071701 59.0706904 27.9375 63.375 C27.958125 67.21125 27.97875 71.0475 28 75 C19.42 75 10.84 75 2 75 C1.93941406 72.51210937 1.87882813 70.02421875 1.81640625 67.4609375 C1.73296561 64.09892777 1.64795476 60.73695911 1.5625 57.375 C1.54043488 56.50575897 1.51836975 55.63651794 1.49563599 54.74093628 C1.21529112 43.81962592 0.86204753 32.91034461 0.30712891 21.99902344 C-0.05280974 14.65627503 -0.07501183 7.35115914 0 0 Z " fill="#FAFAFA" transform="translate(174,142)"/>
<path d="M0 0 C28.05 0 56.1 0 85 0 C85 4.95 85 9.9 85 15 C65.53 15 46.06 15 26 15 C26 19.62 26 24.24 26 29 C43.82 29 61.64 29 80 29 C80 33.62 80 38.24 80 43 C62.18 43 44.36 43 26 43 C26 48.61 26 54.22 26 60 C46.13 60 66.26 60 87 60 C87 64.95 87 69.9 87 75 C58.95 75 30.9 75 2 75 C1.67 65.22375 1.34 55.4475 1 45.375 C0.89558594 42.31782715 0.79117187 39.2606543 0.68359375 36.11083984 C0.60137809 33.64421187 0.51933565 31.17757811 0.4375 28.7109375 C0.39431641 27.46546143 0.35113281 26.21998535 0.30664062 24.93676758 C0.26603516 23.69999268 0.22542969 22.46321777 0.18359375 21.18896484 C0.14806396 20.13639496 0.11253418 19.08382507 0.07592773 17.99935913 C-0.03795855 12.00060034 0 5.99983976 0 0 Z " fill="#F9F9F9" transform="translate(284,142)"/>
<path d="M0 0 C6.6 0 13.2 0 20 0 C25.671875 11.0859375 25.671875 11.0859375 27.83105469 16.59814453 C29.89888757 21.80041975 32.12659719 26.91890104 34.40625 32.03125 C34.81282837 32.94781372 35.21940674 33.86437744 35.63830566 34.80871582 C36.92381777 37.7065777 38.21160851 40.60341726 39.5 43.5 C41.20001044 47.32199119 42.89759409 51.1450469 44.59375 54.96875 C44.97615845 55.82633911 45.35856689 56.68392822 45.75256348 57.56750488 C49.61396737 66.27356208 52.98442465 74.95327396 56 84 C49.4 84 42.8 84 36 84 C29 70 29 70 29 65 C16.79 65 4.58 65 -8 65 C-8.99 67.97 -9.98 70.94 -11 74 C-12.2791201 77.358225 -13.64095301 80.67267806 -15 84 C-21.6 84 -28.2 84 -35 84 C-32.62493668 76.87481004 -29.82692312 69.95304325 -27 63 C-26.57332031 61.948125 -26.14664062 60.89625 -25.70703125 59.8125 C-23.69469011 54.91515199 -21.58563415 50.09435923 -19.3125 45.3125 C-15.77053234 37.74348901 -12.76611828 29.96799838 -9.69506836 22.19873047 C-6.70281596 14.66306758 -3.51568413 7.30892226 0 0 Z " fill="#F8F8F8" transform="translate(436,728)"/>
<path d="M0 0 C6.93 0 13.86 0 21 0 C25.84227599 10.82391103 30.60661495 21.67869537 35.3125 32.5625 C40.38620367 44.29606447 45.50241418 56.01009811 50.66015625 67.70703125 C51.05219238 68.59729004 51.44422852 69.48754883 51.84814453 70.40478516 C52.62179436 72.14787496 53.40416615 73.88711745 54.19482422 75.62255859 C54.56236816 76.43160645 54.92991211 77.2406543 55.30859375 78.07421875 C55.63529053 78.78537842 55.9619873 79.49653809 56.29858398 80.22924805 C57 82 57 82 57 84 C50.07 84 43.14 84 36 84 C33.69 78.06 31.38 72.12 29 66 C17.12 65.67 5.24 65.34 -7 65 C-7.99 68.3 -8.98 71.6 -10 75 C-11.21876703 78.0734125 -12.5978257 81.00224804 -14 84 C-20.27 84 -26.54 84 -33 84 C-32.14417689 79.72088445 -31.19937893 77.07328224 -29.3125 73.25 C-27.0551413 68.47095489 -25.17585958 63.77239031 -23.5 58.75 C-20.43411409 49.63906086 -16.64368379 40.83632984 -12.875 32 C-12.56731689 31.27808472 -12.25963379 30.55616943 -11.94262695 29.81237793 C-5.82612715 15.4800367 -5.82612715 15.4800367 -2.82861328 9.08984375 C-1.65901113 6.13999272 -0.87176205 3.05116719 0 0 Z " fill="#F9F9F9" transform="translate(286,728)"/>
<path d="M0 0 C1.97411149 1.54256153 3.3791286 3.06541155 5 5 C7.48705465 3.85212862 9.56760582 2.5963692 11.8125 1 C17.27793725 -2.42929396 22.58935908 -3.65192959 29 -3 C35.72426829 -1.1421174 40.18391869 1.09122894 44 7 C44.96410418 9.96685036 45.12188154 12.66006585 45.11352539 15.76855469 C45.11341209 17.17956451 45.11341209 17.17956451 45.11329651 18.61907959 C45.10813522 19.62650208 45.10297394 20.63392456 45.09765625 21.671875 C45.0962413 22.70942932 45.09482635 23.74698364 45.09336853 24.815979 C45.08777447 28.12734876 45.07522303 31.43865071 45.0625 34.75 C45.05748423 36.99609277 45.05292146 39.24218661 45.04882812 41.48828125 C45.03780698 46.99221359 45.02054639 52.4960953 45 58 C39.39 58 33.78 58 28 58 C27.98541748 56.71311279 27.97083496 55.42622559 27.95581055 54.1003418 C27.89788852 49.3310145 27.82065537 44.56216238 27.73754883 39.79321289 C27.70427076 37.7281871 27.67624786 35.66306973 27.65356445 33.59790039 C27.62007145 30.63127568 27.56775855 27.66549252 27.51171875 24.69921875 C27.50532883 23.7741301 27.4989389 22.84904144 27.49235535 21.8959198 C27.47256119 21.03525406 27.45276703 20.17458832 27.43237305 19.2878418 C27.42126999 18.53061325 27.41016693 17.7733847 27.39872742 16.99320984 C26.89433604 14.47179342 25.97351239 13.59872877 24 12 C21.09704195 10.54852097 19.22738221 10.62760975 16 11 C13.07062346 12.81310142 10.56352051 14.87295899 9 18 C8.84266751 20.98763355 8.74138585 23.95541151 8.68359375 26.9453125 C8.66281265 27.8303244 8.64203156 28.7153363 8.62062073 29.62716675 C8.55513402 32.45969741 8.49624438 35.29232225 8.4375 38.125 C8.39431394 40.04297857 8.35069963 41.96094754 8.30664062 43.87890625 C8.19864599 48.5858423 8.09956622 53.29284783 8 58 C2.06 58 -3.88 58 -10 58 C-10.01458252 56.68281982 -10.02916504 55.36563965 -10.04418945 54.00854492 C-10.10210713 49.12740762 -10.17934036 44.24673482 -10.26245117 39.3659668 C-10.29573128 37.25243664 -10.32375353 35.13881694 -10.34643555 33.02514648 C-10.37992472 29.98903194 -10.43223764 26.95374025 -10.48828125 23.91796875 C-10.49467117 22.97100632 -10.5010611 22.02404388 -10.50764465 21.04838562 C-10.52743881 20.16769913 -10.54723297 19.28701263 -10.56762695 18.37963867 C-10.58428154 17.21714851 -10.58428154 17.21714851 -10.60127258 16.03117371 C-11.11018558 13.43869909 -11.8818372 12.55170266 -14 11 C-18.93621264 10.43354937 -21.0426209 10.47779322 -25.4375 12.875 C-28.03874519 14.74164041 -28.03874519 14.74164041 -29 17 C-29.15745826 20.0604194 -29.25866877 23.101419 -29.31640625 26.1640625 C-29.33718735 27.07127045 -29.35796844 27.97847839 -29.37937927 28.91317749 C-29.44487135 31.8170398 -29.50375814 34.72099405 -29.5625 37.625 C-29.60568555 39.59115542 -29.64929985 41.55730147 -29.69335938 43.5234375 C-29.80136093 48.34886539 -29.90043677 53.17436101 -30 58 C-35.94 58 -41.88 58 -48 58 C-48 38.53 -48 19.06 -48 -1 C-42.72 -1 -37.44 -1 -32 -1 C-32 1.31 -32 3.62 -32 6 C-31.34 6 -30.68 6 -30 6 C-29.6596875 5.1028125 -29.6596875 5.1028125 -29.3125 4.1875 C-23.46087304 -5.5652116 -8.85663911 -4.31045554 0 0 Z " fill="#F7F7F7" transform="translate(568,754)"/>
<path d="M0 0 C6.45527866 7.67695523 7.6335368 16.24904231 7 26 C6.19371087 33.95885395 3.02993644 40.67955941 -3.21875 45.828125 C-10.80493946 51.03730843 -16.71499058 52.36292633 -25.8125 52.375 C-26.77220703 52.39949219 -27.73191406 52.42398438 -28.72070312 52.44921875 C-38.2104877 52.48808476 -44.30338266 49.2592936 -51.23828125 42.9375 C-57.10300068 36.48760901 -58.21661283 29.1930388 -58.3125 20.8125 C-58.34150391 19.98685547 -58.37050781 19.16121094 -58.40039062 18.31054688 C-58.47244499 11.27693242 -56.56745625 6.49352878 -52.4296875 0.86328125 C-37.50262165 -14.02627941 -15.5358909 -13.60748486 0 0 Z " fill="#F8F8F8" transform="translate(797,761)"/>
<path d="M0 0 C9.40078536 -0.52986245 18.32386583 2.25417377 25.5234375 8.31640625 C32.08581581 14.88947247 35.24852202 20.76307056 35.5859375 30.12890625 C35.16300082 40.12756324 32.41731655 48.04694601 25.3125 55.2421875 C17.90777531 61.54757593 10.81422971 62.63455303 1.3359375 62.75390625 C-0.00053833 62.77626343 -0.00053833 62.77626343 -1.36401367 62.79907227 C-9.78110171 62.6667355 -16.14323262 59.6320496 -22.37109375 54.03125 C-29.29699037 46.09427359 -30.36257912 36.8998524 -30.24609375 26.765625 C-29.61420891 18.38628252 -26.33157256 12.53581607 -20.1875 6.8828125 C-13.95614461 2.11571553 -7.6879539 0.74448565 0 0 Z " fill="#F7F7F8" transform="translate(653.9765625,750.80859375)"/>
<path d="M0 0 C7.27495435 -1.63465166 14.91558733 -2.8287542 22 0 C28.46885934 5.9841288 32.51872878 14.22985921 36.42626953 22.02392578 C38.10092938 25.19086708 39.96993734 28.05182407 42 31 C44.58168798 28.62694307 46.35227088 26.06924071 48.21484375 23.10546875 C49.12073242 21.67170898 49.12073242 21.67170898 50.04492188 20.20898438 C50.98174805 18.71334961 50.98174805 18.71334961 51.9375 17.1875 C53.7640865 14.28734345 55.59070965 11.38857955 57.44775391 8.5078125 C58.98651841 6.12750479 58.98651841 6.12750479 59.95458984 3.9765625 C60.76953125 2.32421875 60.76953125 2.32421875 63 0 C66.61241285 -0.71797822 70.08616756 -0.5652656 73.75 -0.375 C75.22533203 -0.33439453 75.22533203 -0.33439453 76.73046875 -0.29296875 C79.15587423 -0.22232587 81.57681945 -0.12376119 84 0 C79.9444858 7.84066079 75.35656104 15.0581427 70.25 22.25 C69.55060303 23.26739258 68.85120605 24.28478516 68.13061523 25.33300781 C62.25129497 33.8603593 62.25129497 33.8603593 58.76953125 37.59375 C53.37464816 43.52064729 51.38784776 49.80691869 51.17578125 57.69921875 C51.14094635 58.48531021 51.10611145 59.27140167 51.07022095 60.08131409 C50.75705826 68.05659356 50.8513649 76.02179216 51 84 C45.06 84 39.12 84 33 84 C33.00902344 81.60105469 33.01804687 79.20210937 33.02734375 76.73046875 C33.01226646 74.37034748 32.98531731 72.01063358 32.95727539 69.65063477 C32.94425033 68.02829109 32.94329508 66.40579865 32.95532227 64.78344727 C33.02576809 53.90459943 32.15821539 46.72277884 25 38 C24.18800141 36.86064402 23.38219048 35.71682137 22.5859375 34.56640625 C21.85632813 33.57511719 21.12671875 32.58382812 20.375 31.5625 C16.06163376 25.6213515 12.00225195 19.5293644 8 13.375 C7.15381104 12.07671265 7.15381104 12.07671265 6.29052734 10.75219727 C4.01302293 7.2304942 1.81744989 3.78528735 0 0 Z " fill="#F9F9FA" transform="translate(330,728)"/>
<path d="M0 0 C6.27 0 12.54 0 19 0 C19.11339671 8.56302182 19.20494142 17.1254505 19.25906086 25.68902397 C19.28504818 29.66634101 19.32024366 33.64311348 19.37719727 37.62011719 C19.4319102 41.46514284 19.46150205 45.30964793 19.47438622 49.15503311 C19.48355636 50.61496286 19.50146227 52.07486723 19.52865028 53.5345726 C19.69751481 62.98494137 19.12042955 71.15203324 12.62763977 78.56735229 C4.61619033 85.8417528 -4.45024803 87.35827815 -14.91015625 87.203125 C-24.38837378 86.58003105 -30.71218223 83.12191605 -37 76 C-41.02661159 70.44950501 -41.72414843 64.73077834 -42 58 C-39.20869212 57.49792321 -36.41699129 56.99824925 -33.625 56.5 C-32.8309375 56.35691406 -32.036875 56.21382812 -31.21875 56.06640625 C-25.2265625 55 -25.2265625 55 -23 55 C-22.87882812 55.66386719 -22.75765625 56.32773437 -22.6328125 57.01171875 C-21.53514944 63.75052474 -21.53514944 63.75052474 -19 70 C-17.32171592 70.96624167 -17.32171592 70.96624167 -15 71 C-14.37351563 71.05027344 -13.74703125 71.10054687 -13.1015625 71.15234375 C-9.78487553 71.30646489 -7.60191264 71.31679613 -4.625 69.75 C-1.11878556 65.97407676 -0.7411393 62.74979411 -0.68115234 57.67089844 C-0.66128265 56.38987244 -0.64141296 55.10884644 -0.62094116 53.78900146 C-0.60906564 52.3957944 -0.59740273 51.0025855 -0.5859375 49.609375 C-0.56722168 48.1801848 -0.54764795 46.75100559 -0.5272522 45.32183838 C-0.47596852 41.56708264 -0.43632284 37.81229108 -0.39910889 34.05737305 C-0.35904551 30.2230547 -0.30796385 26.38888483 -0.2578125 22.5546875 C-0.16109775 15.03655256 -0.07769772 7.51835993 0 0 Z " fill="#F7F7F7" transform="translate(226,727)"/>
<path d="M0 0 C0 6.6 0 13.2 0 20 C4.29 20 8.58 20 13 20 C13 23.96 13 27.92 13 32 C8.71 32 4.42 32 0 32 C0.33 43.22 0.66 54.44 1 66 C4.63 66 8.26 66 12 66 C12.66 69.96 13.32 73.92 14 78 C9.21642522 80.39178739 5.86355587 80.40156478 0.625 80.4375 C-0.21289062 80.47037109 -1.05078125 80.50324219 -1.9140625 80.53710938 C-6.10451043 80.57334753 -9.09347093 80.40720627 -12.4765625 77.78515625 C-17.2131715 72.55728904 -17.28162088 67.93325089 -17.1953125 61.19921875 C-17.1924826 60.36284378 -17.18965271 59.52646881 -17.18673706 58.66474915 C-17.1755832 56.00551774 -17.15048763 53.34662882 -17.125 50.6875 C-17.11496399 48.87956217 -17.10583923 47.07161904 -17.09765625 45.26367188 C-17.07565959 40.84231688 -17.04116294 36.42121642 -17 32 C-19.97 32 -22.94 32 -26 32 C-26 28.04 -26 24.08 -26 20 C-23.03 20 -20.06 20 -17 20 C-17 15.38 -17 10.76 -17 6 C-14.73192796 4.9932996 -12.46092246 3.99448234 -10.1875 3 C-9.22360352 2.57074219 -9.22360352 2.57074219 -8.24023438 2.1328125 C-5.32243531 0.86288959 -3.21734286 0 0 0 Z " fill="#F8F8F8" transform="translate(720,733)"/>
<path d="M0 0 C-0.66 4.95 -1.32 9.9 -2 15 C-3.98 14.67 -5.96 14.34 -8 14 C-12.11300404 13.54630516 -15.21496995 13.56572806 -18.9375 15.625 C-22.89008238 20.1764585 -22.18462942 26.4498038 -22.31640625 32.2421875 C-22.33718735 33.01055939 -22.35796844 33.77893127 -22.37937927 34.57058716 C-22.44433469 37.00530767 -22.50350638 39.44012847 -22.5625 41.875 C-22.6057367 43.5338642 -22.64935257 45.19271856 -22.69335938 46.8515625 C-22.8006679 50.90094077 -22.90014112 54.95040386 -23 59 C-28.94 59 -34.88 59 -41 59 C-41 39.53 -41 20.06 -41 0 C-35.72 0 -30.44 0 -25 0 C-24.67 1.98 -24.34 3.96 -24 6 C-23.443125 5.236875 -22.88625 4.47375 -22.3125 3.6875 C-15.98500577 -3.66607438 -8.58989964 -3.43595986 0 0 Z " fill="#F6F6F6" transform="translate(856,753)"/>
<path d="M0 0 C4.19616349 3.71660195 5.9274774 7.56840521 6.5390625 13.140625 C6.72431897 20.51720091 6.12849523 25.40830572 1.3125 31.1875 C-2.46815563 34.30098111 -5.40027526 35.15166215 -10.25 34.875 C-15.14242951 34.19005987 -17.42660933 32.48855607 -20.8125 28.9375 C-24.79183303 23.23700216 -23.76956227 13.51948547 -22.8125 6.9375 C-20.94437734 2.67018302 -18.29875083 0.90155459 -14.5 -1.5625 C-9.45648117 -2.50082908 -4.7749286 -1.80386192 0 0 Z " fill="#050505" transform="translate(779.8125,766.0625)"/>
<path d="M0 0 C3.75935826 2.12662306 7.16279654 4.71671784 8.6875 8.875 C9.86472764 16.88014794 9.9143643 24.2912461 5 31 C1.56784914 34.82439667 -1.73202742 35.81969738 -6.72265625 36.16015625 C-10.48108478 35.89584138 -13.25631711 34.55676532 -16 32 C-20.03352133 27.12343637 -20.62804141 23.57129685 -20.5 17.5 C-20.51546875 16.76652344 -20.5309375 16.03304687 -20.546875 15.27734375 C-20.50973744 10.0873691 -19.41927313 7.093496 -16 3 C-11.47799154 -1.39120656 -5.92997206 -1.07542277 0 0 Z " fill="#040404" transform="translate(662,765)"/>
<path d="M0 0 C5.30241361 -0.06902853 10.6032561 -0.12871364 15.90576172 -0.16479492 C17.70789892 -0.1798424 19.50999973 -0.2002853 21.31201172 -0.22631836 C23.90862021 -0.26288021 26.50474275 -0.27976681 29.1015625 -0.29296875 C30.30191635 -0.31619453 30.30191635 -0.31619453 31.52651978 -0.33988953 C37.32583224 -0.34161782 41.56025912 0.71766175 45.9375 4.8125 C47.46378182 7.95484492 47.02986719 9.704425 46 13 C44.10878207 15.25726011 42.62707151 16.68646424 40 18 C37.01029711 18.08705146 34.04415045 18.11550145 31.0546875 18.09765625 C30.1696756 18.0962413 29.2846637 18.09482635 28.37283325 18.09336853 C25.54018809 18.0877614 22.70762136 18.07520771 19.875 18.0625 C17.95703239 18.05748592 16.03906354 18.05292285 14.12109375 18.04882812 C9.41400782 18.03863963 4.70709192 18.01906563 0 18 C0 12.06 0 6.12 0 0 Z " fill="#070707" transform="translate(778,157)"/>
<path d="M0 0 C5.71080516 -0.09924533 11.42110281 -0.17164621 17.13256836 -0.21972656 C19.07341258 -0.23978028 21.01419685 -0.26703045 22.95483398 -0.30175781 C25.75259232 -0.35055175 28.54954845 -0.37303127 31.34765625 -0.390625 C32.2083522 -0.41127014 33.06904816 -0.43191528 33.95582581 -0.45318604 C39.79027958 -0.45533486 43.2641545 0.51292525 48 4 C49.25 7.4375 49.25 7.4375 49 11 C46.88574298 13.86046538 45.34250343 15.6023761 41.8840332 16.62670898 C37.90549756 17.14166547 33.98781433 17.1226578 29.98046875 17.09765625 C28.69261223 17.09553383 28.69261223 17.09553383 27.3787384 17.09336853 C24.64828951 17.08779057 21.91792393 17.07524214 19.1875 17.0625 C17.3313814 17.05748215 15.4752615 17.05291974 13.61914062 17.04882812 C9.0793695 17.03868112 4.53977754 17.01910145 0 17 C0 11.39 0 5.78 0 0 Z " fill="#020202" transform="translate(548,186)"/>
<path d="M0 0 C5.46261638 -0.07428762 10.92493716 -0.12866714 16.38793945 -0.16479492 C18.24541345 -0.17985946 20.10285201 -0.20031509 21.96020508 -0.22631836 C24.63371539 -0.26280459 27.30675444 -0.2797497 29.98046875 -0.29296875 C31.2213752 -0.31619453 31.2213752 -0.31619453 32.48735046 -0.33988953 C37.18400547 -0.34125317 40.14208587 0.0195057 44 3 C45 4 45 4 45.3125 6.8125 C45 10 45 10 43.1875 12.3125 C38.91489191 15.60851196 34.54056524 15.13021664 29.39453125 15.09765625 C28.55532639 15.0962413 27.71612152 15.09482635 26.85148621 15.09336853 C24.17178784 15.08777215 21.4921731 15.07522035 18.8125 15.0625 C16.99544392 15.05748453 15.17838652 15.05292171 13.36132812 15.04882812 C8.90751987 15.03780391 4.45377411 15.02054178 0 15 C0 10.05 0 5.1 0 0 Z " fill="#070707" transform="translate(547,157)"/>
<path d="M0 0 C3.43880644 3.29641836 5.73724278 6.71188027 8 10.875 C9.96820195 14.45005433 11.93114184 17.95837642 14.25 21.3203125 C16 24 16 24 16 26 C6.1 26 -3.8 26 -14 26 C-12.53857159 22.34642897 -11.12067045 19.28371578 -9.1796875 15.91796875 C-8.64472656 14.98662109 -8.10976563 14.05527344 -7.55859375 13.09570312 C-7.00300781 12.13599609 -6.44742188 11.17628906 -5.875 10.1875 C-5.31167969 9.20845703 -4.74835937 8.22941406 -4.16796875 7.22070312 C-2.78155585 4.81210445 -1.39214945 2.40528605 0 0 Z " fill="#060606" transform="translate(684,161)"/>
<path d="M0 0 C2.53690274 3.24527 3.96769089 6.17587114 5.375 10.0625 C7.3778303 15.45614025 9.61049585 20.66144205 12.08203125 25.85546875 C13 28 13 28 13 30 C5.08 30 -2.84 30 -11 30 C-10.19167604 25.9583802 -9.2426324 22.81409263 -7.71484375 19.04296875 C-7.26689453 17.93115234 -6.81894531 16.81933594 -6.35742188 15.67382812 C-5.88884766 14.52333984 -5.42027344 13.37285156 -4.9375 12.1875 C-4.46505859 11.01767578 -3.99261719 9.84785156 -3.50585938 8.64257812 C-2.34111284 5.76012457 -1.17236766 2.87936035 0 0 Z " fill="#111111" transform="translate(296,749)"/>
<path d="M0 0 C0.66 0 1.32 0 2 0 C3.57102489 3.80677259 5.1374843 7.61538764 6.69970703 11.42578125 C7.23197786 12.72219683 7.76550105 14.01809894 8.30029297 15.31347656 C9.06805964 17.17377949 9.83097659 19.03608163 10.59375 20.8984375 C11.05458984 22.01911621 11.51542969 23.13979492 11.99023438 24.29443359 C13 27 13 27 13 29 C5.08 29 -2.84 29 -11 29 C-7.625 17.75 -7.625 17.75 -5.95703125 13.8671875 C-5.60576172 13.0421875 -5.25449219 12.2171875 -4.89257812 11.3671875 C-4.53615234 10.54476562 -4.17972656 9.72234375 -3.8125 8.875 C-3.44447266 8.01390625 -3.07644531 7.1528125 -2.69726562 6.265625 C-1.80293562 4.17498344 -0.90382824 2.08654837 0 0 Z " fill="#090909" transform="translate(445,749)"/>
<path d="M0 0 C0.33 0 0.66 0 1 0 C1 18.15 1 36.3 1 55 C0.67 55 0.34 55 0 55 C-0.33 39.16 -0.66 23.32 -1 7 C-1.99 7.495 -1.99 7.495 -3 8 C-1.125 2.25 -1.125 2.25 0 0 Z " fill="#292728" transform="translate(480,162)"/>
<path d="M0 0 C2 1 2 1 2.8515625 3.06640625 C3.10679687 3.89011719 3.36203125 4.71382812 3.625 5.5625 C3.88539063 6.38878906 4.14578125 7.21507812 4.4140625 8.06640625 C4.60742188 8.70449219 4.80078125 9.34257812 5 10 C4.01 9.67 3.02 9.34 2 9 C1.67 13.29 1.34 17.58 1 22 C0.67 22 0.34 22 0 22 C0 14.74 0 7.48 0 0 Z " fill="#2C2B2C" transform="translate(407,164)"/>
</svg>
